# xmcd
#
# Track frame offsets: 
#        150
#        16163
#        30112
#        47671
#        62140
#        77367
#        94643
#        115058
#        130225
#        144724
#        161185
#        178051
#
# Disc length: 2606 seconds
#
# Revision: 2
# Processed by: cddbd v1.5.2PL0 Copyright (c) Steve Scherf et al.
# Submitted via: ExactAudioCopy v1.0b3
#
DISCID=910a2c0c
DTITLE=Группа «Лесоповал» - Мама-улица
DYEAR=2007
DGENRE=Chanson
TTITLE0=Мама-улица (Сергей Куприк)
TTITLE1=Джанкой (Стас Волков)
TTITLE2=Ожерелье (Сергей Куприк)
TTITLE3=Воронок (Стас Волков)
TTITLE4=Концерт (Сергей Куприк)
TTITLE5=Заточка (Стас Волков)
TTITLE6=Сирень (Сергей Куприк)
TTITLE7=По списку (Сергей Куприк)
TTITLE8=Деревеньки окрестные (Стас Волков)
TTITLE9=Опер Самсонов  (Стас Волков и Сергей Куприк)
TTITLE10=Сибирские реки (Стас Волков)
TTITLE11=Всё будет нормально  (Стас Волков и Сергей Куприк)
EXTD=
EXTT0=
EXTT1=
EXTT2=
EXTT3=
EXTT4=
EXTT5=
EXTT6=
EXTT7=
EXTT8=
EXTT9=
EXTT10=
EXTT11=
PLAYORDER=
